<?xml version="1.0" encoding="UTF-8"?>
<!DOCTYPE svg PUBLIC "-//W3C//DTD SVG 1.1//EN" "http://www.w3.org/Graphics/SVG/1.1/DTD/svg11.dtd">
<svg xmlns="http://www.w3.org/2000/svg" version="1.1" width="500px" height="133px" style="shape-rendering:geometricPrecision; text-rendering:geometricPrecision; image-rendering:optimizeQuality; fill-rule:evenodd; clip-rule:evenodd" xmlns:xlink="http://www.w3.org/1999/xlink">
<g><path style="opacity:1" fill="#fcfcfc" d="M -0.5,-0.5 C 166.167,-0.5 332.833,-0.5 499.5,-0.5C 499.5,43.8333 499.5,88.1667 499.5,132.5C 332.833,132.5 166.167,132.5 -0.5,132.5C -0.5,88.1667 -0.5,43.8333 -0.5,-0.5 Z"/></g>
<g><path style="opacity:1" fill="#020202" d="M 415.5,5.5 C 423.5,5.5 431.5,5.5 439.5,5.5C 439.333,23.5031 439.5,41.5031 440,59.5C 443.453,55.8549 447.62,53.3549 452.5,52C 479.692,48.8653 494.692,60.8653 497.5,88C 496.186,111.163 484.019,123.663 461,125.5C 452.834,125.287 446.001,122.287 440.5,116.5C 440.44,115.957 440.107,115.624 439.5,115.5C 438.526,117.743 438.192,120.076 438.5,122.5C 430.833,122.5 423.167,122.5 415.5,122.5C 415.5,83.5 415.5,44.5 415.5,5.5 Z"/></g>
<g><path style="opacity:1" fill="#040404" d="M 89.5,18.5 C 84.5806,22.6378 79.2473,26.3045 73.5,29.5C 72.3348,38.1475 72.1681,46.8142 73,55.5C 78.4032,51.9139 83.9032,48.5806 89.5,45.5C 89.6666,59.8372 89.4999,74.1705 89,88.5C 85.1307,113.856 70.2974,125.856 44.5,124.5C 21.6929,125.705 7.52624,115.372 2,93.5C 0.5426,65.5425 0.0425998,37.5425 0.5,9.5C 9.16667,9.5 17.8333,9.5 26.5,9.5C 26.3334,34.5022 26.5,59.5022 27,84.5C 28.8481,94.4304 34.8481,99.4304 45,99.5C 54.1591,99.6687 59.8258,95.3353 62,86.5C 63.4532,60.8766 63.9532,35.21 63.5,9.5C 72.1667,9.5 80.8333,9.5 89.5,9.5C 89.5,12.5 89.5,15.5 89.5,18.5 Z"/></g>
<g><path style="opacity:1" fill="#fc8e00" d="M 109.5,9.5 C 106.44,47.1634 103.44,84.8301 100.5,122.5C 97.5,122.5 94.5,122.5 91.5,122.5C 91.8331,96.4915 91.4998,70.4915 90.5,44.5C 89.8933,44.6236 89.56,44.9569 89.5,45.5C 83.9032,48.5806 78.4032,51.9139 73,55.5C 72.1681,46.8142 72.3348,38.1475 73.5,29.5C 79.2473,26.3045 84.5806,22.6378 89.5,18.5C 94.5266,16.3166 99.1933,13.4832 103.5,10C 105.473,9.50454 107.473,9.33788 109.5,9.5 Z"/></g>
<g><path style="opacity:1" fill="#020201" d="M 109.5,9.5 C 119.083,9.18158 128.583,9.51491 138,10.5C 145.679,31.7064 153.846,52.7064 162.5,73.5C 171.154,52.7064 179.321,31.7064 187,10.5C 196.417,9.51491 205.917,9.18158 215.5,9.5C 218.921,47.133 221.921,84.7997 224.5,122.5C 216.167,122.5 207.833,122.5 199.5,122.5C 198.115,100.105 196.115,77.7713 193.5,55.5C 185.639,77.0815 177.973,98.7482 170.5,120.5C 165.208,121.495 159.875,121.828 154.5,121.5C 147.236,99.3754 139.569,77.3754 131.5,55.5C 128.796,77.7655 126.796,100.099 125.5,122.5C 117.167,122.5 108.833,122.5 100.5,122.5C 103.44,84.8301 106.44,47.1634 109.5,9.5 Z"/></g>
<g><path style="opacity:1" fill="#010101" d="M 334.5,122.5 C 326.167,122.5 317.833,122.5 309.5,122.5C 309.829,107.324 309.496,92.324 308.5,77.5C 296.5,77.5 284.5,77.5 272.5,77.5C 271.504,92.324 271.171,107.324 271.5,122.5C 263.167,122.5 254.833,122.5 246.5,122.5C 246.5,85.1667 246.5,47.8333 246.5,10.5C 255.167,10.5 263.833,10.5 272.5,10.5C 272.5,25.5 272.5,40.5 272.5,55.5C 284.5,55.5 296.5,55.5 308.5,55.5C 308.5,40.5 308.5,25.5 308.5,10.5C 317.167,10.5 325.833,10.5 334.5,10.5C 334.5,47.8333 334.5,85.1667 334.5,122.5 Z"/></g>
<g><path style="opacity:1" fill="#414141" d="M 360.5,53.5 C 352.833,53.5 345.167,53.5 337.5,53.5C 337.5,67.8333 337.5,82.1667 337.5,96.5C 336.504,82.0095 336.171,67.3428 336.5,52.5C 344.684,52.1743 352.684,52.5076 360.5,53.5 Z"/></g>
<g><path style="opacity:1" fill="#020202" d="M 360.5,53.5 C 360.333,66.1711 360.5,78.8377 361,91.5C 362.946,104.232 370.113,108.399 382.5,104C 385.467,101.9 387.3,99.0662 388,95.5C 388.5,81.504 388.667,67.504 388.5,53.5C 396.5,53.5 404.5,53.5 412.5,53.5C 412.667,69.1702 412.5,84.8369 412,100.5C 409.435,115.893 400.268,124.06 384.5,125C 371.417,127.072 359.084,125.072 347.5,119C 340.586,113.089 337.252,105.589 337.5,96.5C 337.5,82.1667 337.5,67.8333 337.5,53.5C 345.167,53.5 352.833,53.5 360.5,53.5 Z"/></g>
<g><path style="opacity:1" fill="#fafafa" d="M 450.5,71.5 C 468.555,71.7203 474.721,80.3869 469,97.5C 462.359,104.852 454.525,106.352 445.5,102C 434.917,89.7201 436.583,79.5535 450.5,71.5 Z"/></g>
<g><path style="opacity:1" fill="#404040" d="M 272.5,77.5 C 272.5,92.8333 272.5,108.167 272.5,123.5C 263.651,123.826 254.984,123.493 246.5,122.5C 254.833,122.5 263.167,122.5 271.5,122.5C 271.171,107.324 271.504,92.324 272.5,77.5 Z"/></g>
<g><path style="opacity:1" fill="#343434" d="M 308.5,77.5 C 309.496,92.324 309.829,107.324 309.5,122.5C 317.833,122.5 326.167,122.5 334.5,122.5C 326.016,123.493 317.349,123.826 308.5,123.5C 308.5,108.167 308.5,92.8333 308.5,77.5 Z"/></g>
<g><path style="opacity:1" fill="#696969" d="M 415.5,5.5 C 415.5,44.5 415.5,83.5 415.5,122.5C 423.167,122.5 430.833,122.5 438.5,122.5C 438.192,120.076 438.526,117.743 439.5,115.5C 440.107,115.624 440.44,115.957 440.5,116.5C 439.532,118.607 439.198,120.941 439.5,123.5C 431.167,123.5 422.833,123.5 414.5,123.5C 414.168,83.9965 414.501,44.6631 415.5,5.5 Z"/></g>
</svg>
