<svg xmlns="http://www.w3.org/2000/svg" width="500" height="133" viewBox="0 0 500 133" version="1.1"><path d="M 415.469 65 C 415.469 97.725, 415.595 111.112, 415.749 94.750 C 415.904 78.387, 415.904 51.612, 415.749 35.250 C 415.595 18.887, 415.469 32.275, 415.469 65 M 89.162 15 L 88.955 20.500 80.977 25.756 L 73 31.011 73 43.565 C 73 53.340, 73.277 55.952, 74.250 55.369 C 74.938 54.956, 78.529 52.688, 82.231 50.329 L 88.961 46.038 89.251 67.769 L 89.541 89.500 89.771 67.250 C 89.915 53.236, 90.370 45, 91 45 C 91.650 45, 92 58.686, 92 84.057 L 92 123.115 96.237 122.807 L 100.474 122.500 105.169 70.500 C 110.881 7.236, 110.777 10, 107.455 10 C 106.055 10, 101.578 12.248, 97.507 14.995 L 90.104 19.991 89.737 14.745 L 89.370 9.500 89.162 15 M 348.976 53.732 L 360.956 54.061 361.261 72.281 L 361.566 90.500 361.533 72 L 361.500 53.500 349.248 53.452 L 336.997 53.404 348.976 53.732 M 400.978 53.732 L 412.960 54.061 413.260 74.281 L 413.561 94.500 413.530 74 L 413.500 53.500 401.248 53.452 L 388.997 53.404 400.978 53.732 M 281.750 78.745 C 286.837 78.927, 295.162 78.927, 300.250 78.745 C 305.337 78.564, 301.175 78.415, 291 78.415 C 280.825 78.415, 276.662 78.564, 281.750 78.745 M 439.168 120.250 L 439.336 124.500 439.733 120.681 C 440.087 117.265, 440.307 117.001, 441.814 118.181 C 443.328 119.365, 443.360 119.321, 442.128 117.750 C 439.914 114.927, 438.988 115.709, 439.168 120.250 M 159.250 122.728 C 161.313 122.944, 164.688 122.944, 166.750 122.728 C 168.813 122.513, 167.125 122.336, 163 122.336 C 158.875 122.336, 157.188 122.513, 159.250 122.728" stroke="none" fill="#ff9000" fill-rule="evenodd"/><path d="M 416 65 L 416 124 427.500 124 L 439 124 439 120 C 439 115.374, 439.771 115.063, 442.924 118.419 C 449.585 125.509, 466.075 127.772, 476.760 123.063 C 483.611 120.044, 492.131 110.937, 494.814 103.767 C 502.184 84.069, 494.319 62.353, 477 54.580 C 466.415 49.830, 451.761 51.131, 443.319 57.571 L 440 60.102 440 33.051 L 440 6 428 6 L 416 6 416 65 M 1.031 46.750 C 1.048 66.963, 1.493 86.825, 2.021 90.888 C 4.913 113.167, 19.971 124.970, 45.500 124.970 C 63.519 124.970, 76.946 118.775, 83.625 107.377 C 88.260 99.468, 88.975 94.382, 88.988 69.257 L 89 46.013 82.250 50.316 C 78.537 52.683, 74.938 54.956, 74.250 55.369 C 73.277 55.952, 73 53.340, 73 43.565 L 73 31.011 80.977 25.756 L 88.955 20.500 88.977 15.250 L 89 10 76.555 10 L 64.109 10 63.805 48.250 C 63.508 85.476, 63.440 86.621, 61.271 91.022 C 58.134 97.387, 54.214 99.493, 45.500 99.493 C 37.021 99.493, 32.819 97.373, 29.655 91.500 C 27.571 87.632, 27.490 86.223, 27.196 48.750 L 26.892 10 13.946 10 L 1 10 1.031 46.750 M 105.463 66.250 L 100.480 122.500 112.876 122.781 C 119.693 122.935, 125.460 122.873, 125.690 122.643 C 126.126 122.207, 130.985 63.625, 130.995 58.691 C 130.998 57.146, 131.376 56.115, 131.836 56.399 C 132.296 56.683, 137.756 71.560, 143.970 89.458 L 155.268 122 163.002 122 L 170.736 122 181.957 89.750 C 188.128 72.012, 193.588 57.073, 194.089 56.550 C 194.646 55.969, 195.003 56.747, 195.008 58.550 C 195.013 60.173, 196.134 75.225, 197.500 92 C 198.866 108.775, 199.987 122.612, 199.992 122.750 C 199.996 122.888, 205.625 123, 212.500 123 L 225 123 224.947 118.750 C 224.918 116.412, 222.777 91.100, 220.188 62.500 L 215.483 10.500 201.856 10.223 L 188.229 9.945 184.257 20.223 C 182.072 25.875, 176.533 40.288, 171.947 52.250 C 167.361 64.213, 163.335 74, 163 74 C 162.665 74, 158.639 64.213, 154.053 52.250 C 149.467 40.288, 143.933 25.888, 141.754 20.250 L 137.792 10 124.119 10 L 110.446 10 105.463 66.250 M 247 67.530 L 247 124.060 259.750 123.780 L 272.500 123.500 272.769 100.750 L 273.038 78 291.019 78 L 309 78 309 101 L 309 124 322 124 L 335 124 335 67.500 L 335 11 322 11 L 309 11 309 33.500 L 309 56 291 56 L 273 56 273 33.500 L 273 11 260 11 L 247 11 247 67.530 M 337 74.816 C 337 102.716, 338.588 110.487, 345.658 117.196 C 352.752 123.927, 368.709 127.198, 384.318 125.120 C 395.677 123.607, 403.106 120.216, 407.080 114.730 C 412.293 107.534, 413 103.068, 413 77.318 L 413 54 401 54 L 389 54 388.994 73.750 C 388.988 95.124, 388.333 99.399, 384.509 102.991 C 381.172 106.126, 372.695 106.928, 368.085 104.544 C 362.460 101.635, 361.648 98.122, 361.198 74.750 L 360.798 54 348.899 54 L 337 54 337 74.816 M 448 74.214 C 442.978 76.863, 439 83.177, 439 88.500 C 439 92.568, 442.815 99.884, 446.237 102.377 C 450.213 105.273, 459.443 105.705, 463.975 103.206 C 468.234 100.857, 472 94.101, 472 88.811 C 472 76.035, 459.251 68.281, 448 74.214" stroke="none" fill="#050505" fill-rule="evenodd"/></svg>